<svg width="3000" height="2000" viewBox="0 0 3000 2000" fill="none" xmlns="http://www.w3.org/2000/svg">
<g clip-path="url(#clip0_2_5)">
<path d="M1232.32 936.732C1205.87 971.772 1129.89 972.172 1090.54 978.812C980.916 997.292 871.328 1023.21 759.688 1026.65C651.044 1029.97 541.76 1013.85 433.032 1011.53C357.732 1009.89 283.72 1016.25 208.804 1013.37C195.52 1012.89 182.232 1012.09 168.904 1010.93C116.36 1006.33 59.232 1011.81 8.276 997.612C6.86 997.212 4.892 996.692 2.62 996.052V958.972C2.876 958.972 3.132 958.932 3.392 958.892C20.836 956.892 34.12 947.692 48.864 938.732C69.948 925.972 77.664 930.692 103.12 930.612C113.404 930.572 125.748 928.972 135.904 930.572C151.12 932.972 160.288 942.692 174.476 947.292C204.732 957.092 238.804 959.172 270.088 952.852C314.832 943.812 361.504 939.332 405.644 930.812C430.972 925.932 459.088 930.812 484.716 930.612C519.26 930.332 557.66 925.932 591.044 916.972C620.06 909.172 646.288 905.972 676.672 906.372C711.044 906.852 730.588 921.172 761.828 926.692C813 935.652 868.972 924.972 918.428 913.052C952.456 904.852 977.312 921.212 1011.94 924.572C1064.49 929.652 1112.87 917.412 1164.6 913.852C1193.62 911.856 1212.3 918.092 1232.32 936.732Z" fill="#ECF0F3"/>
<path d="M2884.28 904.912C2874.51 904.872 2864.7 905.112 2854.8 905.712C2851.12 905.952 2847.43 906.232 2843.74 906.552C2837.83 907.072 2831.87 907.752 2825.92 908.472C2792.06 912.712 2757.6 919.832 2723.02 924.232C2692.29 928.152 2661.47 929.952 2631 925.672C2628.34 925.312 2625.73 924.912 2623.07 924.432C2612.66 922.592 2602.33 920.432 2592 918.112C2587.67 917.192 2583.38 916.192 2579.06 915.192C2569.58 912.992 2560.11 910.752 2550.6 908.592C2530.76 904.112 2510.7 900.112 2490.08 897.872C2476.33 896.392 2462.53 895.632 2448.73 895.272C2414.53 894.272 2380.2 895.672 2346.04 894.232C2317.72 893.032 2284.03 894.072 2254.33 891.592C2211.68 888.032 2171.44 874.672 2129.1 870.312C2077.37 864.992 2026.63 867.032 1974.43 860.392C1966.54 859.392 1958.78 858.152 1951.16 856.872C1928.31 852.912 1906.2 848.152 1882.46 846.192C1857.6 844.112 1837.46 846.672 1817.1 850.672C1816.03 850.872 1814.92 850.472 1814.4 849.592C1814.36 849.512 1814.32 849.432 1814.27 849.392C1812.26 845.632 1808.14 843.272 1803.68 843.792C1772.53 847.392 1742.44 850.392 1713.64 838.072C1701.21 832.752 1697.66 824.992 1682.78 824.272C1668.94 823.592 1657.41 829.552 1643.06 826.992C1630.93 824.872 1625.87 821.592 1613.83 822.952C1604.96 823.952 1595.48 829.992 1587.52 831.592C1571.32 834.832 1557.17 836.672 1546.12 825.512C1544.74 824.112 1542.3 824.152 1541.06 825.672C1533.13 835.512 1513.72 830.512 1501.38 834.032C1484.66 838.752 1467 848.312 1453.29 858.272C1448.4 861.792 1443.69 865.352 1439.06 868.832C1408.63 879.592 1375.98 889.192 1345.84 890.632C1308.77 892.432 1274.1 891.872 1237.93 900.192C1200.98 908.672 1166.62 925.952 1130.44 935.152C1128.86 935.552 1127.19 935.872 1125.56 936.272C1097.4 938.712 1070.06 943.312 1042.42 945.792L1043.87 947.392L1043.96 947.472C1022.57 948.512 1001.36 948.192 981.64 946.272C959.74 944.152 941.868 936.832 922.968 933.792H922.884C911.912 932.032 900.64 931.752 888.128 934.752C856.416 942.432 822 949.552 787.884 951.312H787.8C787.756 951.312 787.756 951.312 787.716 951.312C768.732 952.272 749.832 951.592 731.532 948.392C702.904 943.312 684.088 930.872 654.648 928.472C651.992 928.232 649.248 928.112 646.376 928.072C615.992 927.672 589.76 930.872 560.748 938.672C532.076 946.392 499.676 950.712 469.204 951.912H468.988C464.06 952.152 459.216 952.272 454.416 952.312C442.716 952.392 430.544 951.432 418.288 950.872C418.244 950.872 418.244 950.872 418.204 950.872H418.12C403.592 950.072 389.104 949.872 375.348 952.512C342.648 958.832 308.576 962.912 274.932 968.272C263.148 970.152 251.404 972.192 239.788 974.552C232.76 975.992 225.56 976.992 218.316 977.552H218.188C204.688 978.632 191.016 978.232 177.56 976.432C166.116 974.952 154.932 972.472 144.176 968.992C142.632 968.512 141.132 967.952 139.72 967.352C127.936 962.352 119.148 954.392 105.604 952.272C99.732 951.352 93.176 951.472 86.62 951.792H86.448C81.776 951.992 77.104 952.272 72.82 952.312C71.364 952.312 69.992 952.312 68.664 952.272H68.62C46.42 951.912 38.448 948.392 18.564 960.432C12.264 964.272 6.22 968.112 0.00799561 971.432V1024.23C0.863996 1024.39 1.724 1024.55 2.624 1024.67C46.252 1031.91 92.968 1028.87 136.596 1032.47C137.28 1032.51 137.924 1032.59 138.612 1032.63C149.668 1033.59 160.728 1034.31 171.74 1034.79C174.012 1034.91 176.24 1034.99 178.512 1035.07C192.356 1035.63 204.948 1040.66 218.744 1040.66C223.416 1040.66 228.088 1040.66 232.76 1040.58H235.676C235.72 1040.58 235.72 1040.58 235.76 1040.58C249.344 1040.46 264.184 1035.31 277.768 1034.95C315.312 1033.99 352.852 1032.63 390.696 1033.03H392.752C396.096 1033.07 399.396 1033.15 402.736 1033.23C454.636 1034.35 506.664 1038.59 558.692 1042.35C568.764 1043.07 578.792 1043.79 588.864 1044.47C629.58 1047.19 670.292 1049.15 710.92 1048.63H712.804C716.448 1048.63 720.132 1048.55 723.776 1048.47C723.692 1048.55 723.56 1048.67 723.52 1048.75C720.436 1051.59 721.248 1054.79 729.776 1058.35C751.632 1067.47 798.86 1054.71 822.004 1054.23C830.832 1054.03 839.66 1053.83 848.488 1053.63C848.532 1053.63 848.532 1053.63 848.532 1053.63C860.916 1053.39 873.26 1053.11 885.688 1052.83C981.472 1050.75 1077.86 1049.15 1173.34 1052.39C1206.26 1053.51 1239.13 1055.47 1272 1057.83C1387.84 1066.11 1503.3 1079.95 1619.32 1083.95C1627.63 1084.23 1635.99 1084.47 1644.3 1084.67C1741.03 1086.83 1836.82 1082.23 1932.68 1075.75C1941.17 1075.19 1949.66 1074.63 1958.18 1073.99C1958.18 1073.99 1958.18 1073.99 1958.23 1073.99C2001.68 1070.95 2045.1 1067.59 2088.68 1064.39C2132.7 1061.15 2176.63 1058.91 2220.51 1057.47C2220.56 1057.47 2220.6 1057.47 2220.6 1057.47C2253.72 1056.35 2286.81 1055.71 2319.9 1055.35C2338.5 1055.15 2357.14 1055.07 2375.78 1055.07C2387.05 1055.07 2398.32 1055.07 2409.6 1055.15C2424.77 1055.23 2439.94 1055.35 2455.11 1055.55C2475.42 1055.75 2495.78 1056.03 2516.14 1056.35C2528.44 1056.55 2540.7 1056.79 2553 1057.03C2568.04 1057.31 2583.04 1057.59 2598.08 1057.83C2610.34 1058.03 2622.6 1058.19 2634.85 1058.31C2691.72 1058.91 2748.64 1058.51 2805.3 1054.83C2813.01 1054.35 2820.72 1053.79 2828.44 1053.15C2839.16 1052.31 2849.82 1051.31 2860.54 1050.19C2862.47 1049.99 2864.48 1049.75 2866.58 1049.51C2902.63 1045.59 2962.2 1037.63 3000 1015.35V912.392C2961.08 909.592 2923.03 905.072 2884.28 904.912ZM1114.84 976.232C1111.93 976.992 1109.02 977.712 1106.06 978.392C1107.3 977.472 1108.54 976.552 1109.79 975.632L1114.84 976.232Z" fill="#C7DFEF"/>
<path d="M-2.83201e-05 1085.75C7.54397 1086.19 16.028 1086.67 25.116 1087.19C28.716 1087.39 32.36 1087.59 36.128 1087.79C54.944 1088.75 75.856 1089.63 96.944 1089.91C177.772 1090.95 261.344 1082.91 241.288 1036.35C237.944 1028.67 228.86 1026.47 222.088 1019.67C218.832 1016.35 216.344 1012.75 214.072 1009.03C211.416 1004.59 209.1 999.988 206.184 995.668C205.672 994.828 205.112 994.028 204.512 993.228C197.184 983.508 187.196 973.508 171.512 969.708C141.256 962.388 101.568 962.868 70.968 968.268C42.724 973.228 24.552 982.548 -0.00402832 973.708V1016.99V1084.75V1085.75H-2.83201e-05Z" fill="#B3D4E8"/>
<path d="M3000 914.68V1100.04C2994.9 1102.84 2989.16 1105.08 2982.73 1106.8C2944.16 1117.2 2901.04 1119.04 2857.84 1119.44C2848.72 1119.48 2839.54 1119.52 2830.46 1119.52C2817.9 1119.52 2805.39 1119.52 2793.09 1119.72C2776.03 1119.96 2759.36 1120.56 2743.29 1121.96C2707.59 1125.04 2672.36 1125.56 2637.43 1124.52C2624.62 1124.16 2611.8 1123.56 2599.08 1122.8C2584.16 1121.96 2569.29 1120.88 2554.42 1119.64C2526.43 1117.32 2498.54 1114.52 2470.55 1111.72C2453.28 1110 2435.96 1108.28 2418.6 1106.72C2418.56 1106.68 2418.52 1106.68 2418.48 1106.68C2418.48 1106.68 2418.48 1106.68 2418.43 1106.68C2383.03 1103.44 2347.42 1100.76 2311.38 1099.68C2299.33 1099.32 2238.13 1101.56 2247.48 1077.36L2244.6 1075.44C2254.08 1072 2264.02 1067.44 2273.92 1062.24C2283.78 1057.04 2293.59 1051.2 2302.85 1045.24H2302.89C2308.85 1041.4 2314.55 1037.48 2319.91 1033.64C2323.08 1031.36 2326.12 1029.12 2328.99 1026.92C2330.71 1025.6 2332.42 1024.28 2334.09 1022.92C2344.64 1014.68 2354.79 1006.04 2365.25 997.6C2367.09 996.08 2368.93 994.6 2370.78 993.12C2388.52 979 2409.18 971.6 2430.95 961.84C2443.03 956.44 2453.62 950.88 2465.1 944.96C2465.92 944.56 2466.78 944.12 2467.63 943.68C2480.79 936.84 2494.25 932.68 2508.3 925.36C2516.96 920.88 2520.69 917 2529.95 913.84C2538.26 911 2544.86 909 2550.9 906.88C2559.99 903.8 2567.79 900.48 2578.16 894C2578.46 893.8 2578.76 893.6 2579.06 893.48C2584.08 890.4 2587.98 888.92 2591.53 888C2597.66 886.44 2603.02 886.52 2611.8 883.48C2619.78 880.68 2624.66 876.84 2630.15 874.68C2633.79 873.24 2637.69 872.48 2642.92 873.28C2656.29 875.28 2667.69 880.48 2682.35 881.92C2704.5 884.08 2690.28 882.84 2707.16 895.44C2711.58 898.72 2717.11 900.88 2723.02 902.52C2736.99 906.36 2753.23 907.28 2762.58 913.24C2767.68 916.48 2770.76 923.24 2776.85 927C2787.99 933.88 2803.29 936.08 2818.93 936.32C2827.59 936.48 2836.38 936 2844.6 935.44C2851.8 934.92 2858.62 934.36 2864.62 933.96C2869.16 933.68 2873.7 933.32 2878.2 932.88C2919.47 929.16 2959.63 920.76 3000 914.68Z" fill="#B3D4E8"/>
</g>
<defs>
<clipPath id="clip0_2_5">
<rect width="3000" height="2000" fill="white"/>
</clipPath>
</defs>
</svg>
