<svg width="3000" height="2000" viewBox="0 0 3000 2000" fill="none" xmlns="http://www.w3.org/2000/svg">
<g clip-path="url(#clip0_2_5)">
<path d="M1232.32 936.732C1205.87 971.772 1129.89 972.172 1090.54 978.812C980.916 997.292 871.328 1023.21 759.688 1026.65C651.044 1029.97 541.76 1013.85 433.032 1011.53C357.732 1009.89 283.72 1016.25 208.804 1013.37C195.52 1012.89 182.232 1012.09 168.904 1010.93C116.36 1006.33 59.232 1011.81 8.276 997.612C6.86 997.212 4.892 996.692 2.62 996.052V958.972C2.876 958.972 3.132 958.932 3.392 958.892C20.836 956.892 34.12 947.692 48.864 938.732C69.948 925.972 77.664 930.692 103.12 930.612C113.404 930.572 125.748 928.972 135.904 930.572C151.12 932.972 160.288 942.692 174.476 947.292C204.732 957.092 238.804 959.172 270.088 952.852C314.832 943.812 361.504 939.332 405.644 930.812C430.972 925.932 459.088 930.812 484.716 930.612C519.26 930.332 557.66 925.932 591.044 916.972C620.06 909.172 646.288 905.972 676.672 906.372C711.044 906.852 730.588 921.172 761.828 926.692C813 935.652 868.972 924.972 918.428 913.052C952.456 904.852 977.312 921.212 1011.94 924.572C1064.49 929.652 1112.87 917.412 1164.6 913.852C1193.62 911.856 1212.3 918.092 1232.32 936.732Z" fill="#ECF0F3"/>
<path d="M2884.28 904.912C2874.51 904.872 2864.7 905.112 2854.8 905.712C2851.12 905.952 2847.43 906.232 2843.74 906.552C2837.83 907.072 2831.87 907.752 2825.92 908.472C2792.06 912.712 2757.6 919.832 2723.02 924.232C2692.29 928.152 2661.47 929.952 2631 925.672C2628.34 925.312 2625.73 924.912 2623.07 924.432C2612.66 922.592 2602.33 920.432 2592 918.112C2587.67 917.192 2583.38 916.192 2579.06 915.192C2569.58 912.992 2560.11 910.752 2550.6 908.592C2530.76 904.112 2510.7 900.112 2490.08 897.872C2476.33 896.392 2462.53 895.632 2448.73 895.272C2414.53 894.272 2380.2 895.672 2346.04 894.232C2317.72 893.032 2284.03 894.072 2254.33 891.592C2211.68 888.032 2171.44 874.672 2129.1 870.312C2077.37 864.992 2026.63 867.032 1974.43 860.392C1966.54 859.392 1958.78 858.152 1951.16 856.872C1928.31 852.912 1906.2 848.152 1882.46 846.192C1857.6 844.112 1837.46 846.672 1817.1 850.672C1816.03 850.872 1814.92 850.472 1814.4 849.592C1814.36 849.512 1814.32 849.432 1814.27 849.392C1812.26 845.632 1808.14 843.272 1803.68 843.792C1772.53 847.392 1742.44 850.392 1713.64 838.072C1701.21 832.752 1697.66 824.992 1682.78 824.272C1668.94 823.592 1657.41 829.552 1643.06 826.992C1630.93 824.872 1625.87 821.592 1613.83 822.952C1604.96 823.952 1595.48 829.992 1587.52 831.592C1571.32 834.832 1557.17 836.672 1546.12 825.512C1544.74 824.112 1542.3 824.152 1541.06 825.672C1533.13 835.512 1513.72 830.512 1501.38 834.032C1484.66 838.752 1467 848.312 1453.29 858.272C1448.4 861.792 1443.69 865.352 1439.06 868.832C1408.63 879.592 1375.98 889.192 1345.84 890.632C1308.77 892.432 1274.1 891.872 1237.93 900.192C1200.98 908.672 1166.62 925.952 1130.44 935.152C1128.86 935.552 1127.19 935.872 1125.56 936.272C1097.4 938.712 1070.06 943.312 1042.42 945.792L1043.87 947.392L1043.96 947.472C1022.57 948.512 1001.36 948.192 981.64 946.272C959.74 944.152 941.868 936.832 922.968 933.792H922.884C911.912 932.032 900.64 931.752 888.128 934.752C856.416 942.432 822 949.552 787.884 951.312H787.8C787.756 951.312 787.756 951.312 787.716 951.312C768.732 952.272 749.832 951.592 731.532 948.392C702.904 943.312 684.088 930.872 654.648 928.472C651.992 928.232 649.248 928.112 646.376 928.072C615.992 927.672 589.76 930.872 560.748 938.672C532.076 946.392 499.676 950.712 469.204 951.912H468.988C464.06 952.152 459.216 952.272 454.416 952.312C442.716 952.392 430.544 951.432 418.288 950.872C418.244 950.872 418.244 950.872 418.204 950.872H418.12C403.592 950.072 389.104 949.872 375.348 952.512C342.648 958.832 308.576 962.912 274.932 968.272C263.148 970.152 251.404 972.192 239.788 974.552C232.76 975.992 225.56 976.992 218.316 977.552H218.188C204.688 978.632 191.016 978.232 177.56 976.432C166.116 974.952 154.932 972.472 144.176 968.992C142.632 968.512 141.132 967.952 139.72 967.352C127.936 962.352 119.148 954.392 105.604 952.272C99.732 951.352 93.176 951.472 86.62 951.792H86.448C81.776 951.992 77.104 952.272 72.82 952.312C71.364 952.312 69.992 952.312 68.664 952.272H68.62C46.42 951.912 38.448 948.392 18.564 960.432C12.264 964.272 6.22 968.112 0.00799561 971.432V1024.23C0.863996 1024.39 1.724 1024.55 2.624 1024.67C46.252 1031.91 92.968 1028.87 136.596 1032.47C137.28 1032.51 137.924 1032.59 138.612 1032.63C149.668 1033.59 160.728 1034.31 171.74 1034.79C174.012 1034.91 176.24 1034.99 178.512 1035.07C192.356 1035.63 204.948 1040.66 218.744 1040.66C223.416 1040.66 228.088 1040.66 232.76 1040.58H235.676C235.72 1040.58 235.72 1040.58 235.76 1040.58C249.344 1040.46 264.184 1035.31 277.768 1034.95C315.312 1033.99 352.852 1032.63 390.696 1033.03H392.752C396.096 1033.07 399.396 1033.15 402.736 1033.23C454.636 1034.35 506.664 1038.59 558.692 1042.35C568.764 1043.07 578.792 1043.79 588.864 1044.47C629.58 1047.19 670.292 1049.15 710.92 1048.63H712.804C716.448 1048.63 720.132 1048.55 723.776 1048.47C723.692 1048.55 723.56 1048.67 723.52 1048.75C720.436 1051.59 721.248 1054.79 729.776 1058.35C751.632 1067.47 798.86 1054.71 822.004 1054.23C830.832 1054.03 839.66 1053.83 848.488 1053.63C848.532 1053.63 848.532 1053.63 848.532 1053.63C860.916 1053.39 873.26 1053.11 885.688 1052.83C981.472 1050.75 1077.86 1049.15 1173.34 1052.39C1206.26 1053.51 1239.13 1055.47 1272 1057.83C1387.84 1066.11 1503.3 1079.95 1619.32 1083.95C1627.63 1084.23 1635.99 1084.47 1644.3 1084.67C1741.03 1086.83 1836.82 1082.23 1932.68 1075.75C1941.17 1075.19 1949.66 1074.63 1958.18 1073.99C1958.18 1073.99 1958.18 1073.99 1958.23 1073.99C2001.68 1070.95 2045.1 1067.59 2088.68 1064.39C2132.7 1061.15 2176.63 1058.91 2220.51 1057.47C2220.56 1057.47 2220.6 1057.47 2220.6 1057.47C2253.72 1056.35 2286.81 1055.71 2319.9 1055.35C2338.5 1055.15 2357.14 1055.07 2375.78 1055.07C2387.05 1055.07 2398.32 1055.07 2409.6 1055.15C2424.77 1055.23 2439.94 1055.35 2455.11 1055.55C2475.42 1055.75 2495.78 1056.03 2516.14 1056.35C2528.44 1056.55 2540.7 1056.79 2553 1057.03C2568.04 1057.31 2583.04 1057.59 2598.08 1057.83C2610.34 1058.03 2622.6 1058.19 2634.85 1058.31C2691.72 1058.91 2748.64 1058.51 2805.3 1054.83C2813.01 1054.35 2820.72 1053.79 2828.44 1053.15C2839.16 1052.31 2849.82 1051.31 2860.54 1050.19C2862.47 1049.99 2864.48 1049.75 2866.58 1049.51C2902.63 1045.59 2962.2 1037.63 3000 1015.35V912.392C2961.08 909.592 2923.03 905.072 2884.28 904.912ZM1114.84 976.232C1111.93 976.992 1109.02 977.712 1106.06 978.392C1107.3 977.472 1108.54 976.552 1109.79 975.632L1114.84 976.232Z" fill="#C7DFEF"/>
<path d="M-2.83201e-05 1085.75C7.54397 1086.19 16.028 1086.67 25.116 1087.19C28.716 1087.39 32.36 1087.59 36.128 1087.79C54.944 1088.75 75.856 1089.63 96.944 1089.91C177.772 1090.95 261.344 1082.91 241.288 1036.35C237.944 1028.67 228.86 1026.47 222.088 1019.67C218.832 1016.35 216.344 1012.75 214.072 1009.03C211.416 1004.59 209.1 999.988 206.184 995.668C205.672 994.828 205.112 994.028 204.512 993.228C197.184 983.508 187.196 973.508 171.512 969.708C141.256 962.388 101.568 962.868 70.968 968.268C42.724 973.228 24.552 982.548 -0.00402832 973.708V1016.99V1084.75V1085.75H-2.83201e-05Z" fill="#B3D4E8"/>
<path d="M3000 914.68V1100.04C2994.9 1102.84 2989.16 1105.08 2982.73 1106.8C2944.16 1117.2 2901.04 1119.04 2857.84 1119.44C2848.72 1119.48 2839.54 1119.52 2830.46 1119.52C2817.9 1119.52 2805.39 1119.52 2793.09 1119.72C2776.03 1119.96 2759.36 1120.56 2743.29 1121.96C2707.59 1125.04 2672.36 1125.56 2637.43 1124.52C2624.62 1124.16 2611.8 1123.56 2599.08 1122.8C2584.16 1121.96 2569.29 1120.88 2554.42 1119.64C2526.43 1117.32 2498.54 1114.52 2470.55 1111.72C2453.28 1110 2435.96 1108.28 2418.6 1106.72C2418.56 1106.68 2418.52 1106.68 2418.48 1106.68C2418.48 1106.68 2418.48 1106.68 2418.43 1106.68C2383.03 1103.44 2347.42 1100.76 2311.38 1099.68C2299.33 1099.32 2238.13 1101.56 2247.48 1077.36L2244.6 1075.44C2254.08 1072 2264.02 1067.44 2273.92 1062.24C2283.78 1057.04 2293.59 1051.2 2302.85 1045.24H2302.89C2308.85 1041.4 2314.55 1037.48 2319.91 1033.64C2323.08 1031.36 2326.12 1029.12 2328.99 1026.92C2330.71 1025.6 2332.42 1024.28 2334.09 1022.92C2344.64 1014.68 2354.79 1006.04 2365.25 997.6C2367.09 996.08 2368.93 994.6 2370.78 993.12C2388.52 979 2409.18 971.6 2430.95 961.84C2443.03 956.44 2453.62 950.88 2465.1 944.96C2465.92 944.56 2466.78 944.12 2467.63 943.68C2480.79 936.84 2494.25 932.68 2508.3 925.36C2516.96 920.88 2520.69 917 2529.95 913.84C2538.26 911 2544.86 909 2550.9 906.88C2559.99 903.8 2567.79 900.48 2578.16 894C2578.46 893.8 2578.76 893.6 2579.06 893.48C2584.08 890.4 2587.98 888.92 2591.53 888C2597.66 886.44 2603.02 886.52 2611.8 883.48C2619.78 880.68 2624.66 876.84 2630.15 874.68C2633.79 873.24 2637.69 872.48 2642.92 873.28C2656.29 875.28 2667.69 880.48 2682.35 881.92C2704.5 884.08 2690.28 882.84 2707.16 895.44C2711.58 898.72 2717.11 900.88 2723.02 902.52C2736.99 906.36 2753.23 907.28 2762.58 913.24C2767.68 916.48 2770.76 923.24 2776.85 927C2787.99 933.88 2803.29 936.08 2818.93 936.32C2827.59 936.48 2836.38 936 2844.6 935.44C2851.8 934.92 2858.62 934.36 2864.62 933.96C2869.16 933.68 2873.7 933.32 2878.2 932.88C2919.47 929.16 2959.63 920.76 3000 914.68Z" fill="#B3D4E8"/>
<path d="M2362.78 990.064C2341.75 976.224 2310.75 975.504 2286.43 966.492C2272.57 961.356 2259.18 955.024 2245.5 949.552C2218.61 938.808 2207.8 947.5 2179.12 947.504C2154.09 947.508 2136.37 935.932 2115.07 930.676C2093.72 925.412 2045.19 925.632 2032.38 912.904C2001.74 904.736 1964.65 913.656 1934.54 919.5C1899.08 926.384 1869.06 924.18 1833.56 921.284C1809.11 919.292 1779.71 921.152 1756.08 925.816C1736.29 929.72 1720.23 941.216 1699 941.608C1684.67 941.872 1669.52 937.684 1654.87 937.304C1619.38 936.38 1585.61 946.156 1550.38 947.464C1522.4 948.504 1495.27 939.52 1466.4 938.312C1413.96 936.116 1369.48 951.808 1319.6 960.616C1278.96 967.792 1250.38 963.572 1212.75 953.876C1187.49 947.368 1145.43 946.468 1118.18 951.452C1094.97 955.696 1074.74 963.904 1050.5 968.18C1028.28 972.1 1004.94 973.688 983.212 977.724C971.728 979.86 960.204 981.732 948.688 983.512L499.764 1027.41L596.924 1086.94C737.184 1172.89 903.688 1213.73 1071.1 1203.24L1133.22 1199.34C1156.89 1197.86 1167.13 1170.64 1149.66 1155.67C1131.9 1140.46 1142.78 1112.74 1166.88 1111.93C1263.28 1108.66 1360.86 1107.6 1456.77 1108.4C1512.84 1108.86 1553.14 1127.55 1606.77 1138.91C1681.02 1154.63 1763.46 1160.72 1839.32 1166.8C2006.35 1180.17 2184.03 1181.68 2345.31 1135.76C2368.3 1129.22 2441.96 1109.64 2443.83 1076.32C2445.84 1040.26 2364.01 1020.56 2362.78 990.064Z" fill="#97D3D0"/>
<path d="M1153.79 1082.19C1172.5 1080.5 1194.01 1067.72 1212.25 1061.99C1231.16 1056.04 1249.24 1049.48 1266.55 1040.15C1290.46 1027.25 1311.35 1010.36 1337.85 1001.36C1363.46 992.648 1391.31 997.024 1417.97 991.34C1447.86 984.968 1474.71 976.688 1506.12 972.596C1521.75 970.56 1536.93 966.104 1552.28 971.48C1569.64 977.564 1569.98 983.168 1592.37 983.156C1622.36 983.14 1650.53 976.804 1679.98 977.092C1712.11 977.408 1739.27 985.868 1769.27 990.376C1802.96 995.436 1837.48 989.048 1871.23 994.84C1905.09 1000.65 1938.95 1006.36 1973.62 1007.38C2012.82 1008.55 2050.85 1015.56 2088.94 1005.39C2121.16 996.776 2155.39 988.676 2189.45 995.928C2246.64 1008.11 2307.38 1015.06 2361.77 1031.36C2387 1038.92 2430.44 1035.13 2449.65 1052.86C2460.8 1063.14 2461.32 1090.65 2466.44 1103.86C2470.91 1115.41 2478.28 1125.25 2483.73 1136.7C2493.78 1157.84 2492.67 1158.17 2470.58 1168.26C2449.26 1178 2419.29 1182.94 2395.67 1186.99C2322.13 1199.6 2239.82 1205.85 2165.55 1208.4C2045.52 1212.51 1921.97 1210.23 1802.82 1196.14C1709.87 1185.14 1618.56 1168.63 1526.11 1155.73C1425.16 1141.64 1246.64 1189.16 1177.81 1095.31C1165.17 1078.08 1172.64 1072.18 1142.96 1080.18L1153.79 1082.19Z" fill="#7BC9CB"/>
<path d="M63.6359 1110.82C51.1839 1105.95 48.0399 1090.83 57.6439 1081.97L66.1679 1074.11C66.4239 1073.27 66.8959 1072.43 67.4959 1071.63C79.7119 1054.31 157.28 1041.35 176.824 1033.75C189.808 1028.67 203.308 1024.83 216.68 1020.67C227.396 1017.39 237.98 1013.91 248.136 1009.55C263.52 1002.91 276.38 991.348 291.892 983.668C315.548 971.948 312.936 987.308 331.92 989.308C348.036 991.028 358.748 971.028 375.848 970.988C386.432 970.948 398.564 976.908 408.632 979.108C427.748 983.308 448.448 984.668 468.288 985.188C491.432 985.788 512.732 981.388 534.372 990.188C547.66 995.588 561.928 1008.71 575 1016.43C591.884 1026.43 609.972 1032.31 627.284 1041.71C652.312 1055.31 674.084 1074.79 699.54 1088.11C699.82 1088.25 700.1 1088.4 700.384 1088.54C750.42 1114.33 776.98 1167.25 765.304 1219.47C763.372 1228.1 761.404 1236.89 759.428 1245.66C754.4 1268.02 730.784 1282.25 706.88 1277.32L260.04 1185.14C251.292 1183.34 242.74 1180.81 234.476 1177.58L63.6359 1110.82Z" fill="#7BC9CB"/>
<path d="M1885.46 1212.55C1910.37 1203.16 1909.46 1170.16 1884.18 1161.66C1883.96 1161.59 1883.74 1161.52 1883.52 1161.44C1857.18 1152.38 1835.19 1140.34 1812.56 1125.22C1769.14 1096.22 1715.28 1095.88 1665.91 1080.08C1628.73 1068.19 1590.94 1050.2 1552.78 1041.48C1524.38 1034.99 1492.38 1038.68 1463.32 1037.55C1369.26 1033.9 1271.1 1041.85 1178.78 1024.57C1136.36 1016.63 1093.93 1017.48 1051.57 1010.32C1025.24 1005.86 1005.74 1000.72 977.908 1002.13C930.044 1004.56 891.48 1019.47 846.644 1033.5C800.62 1047.91 753.324 1059.76 707.656 1075.04C628.944 1101.36 545.28 1114.63 467.12 1145.21C433.256 1158.46 396.136 1163.03 362.88 1174.88C351.328 1179 335.844 1187.18 320.424 1193.54C293.504 1204.63 271.084 1223.48 255.812 1246.96L254.532 1248.92C243.216 1266.32 255.588 1288.73 277.344 1290.18C420.128 1299.72 835.516 1327.7 842.612 1331.02C851.184 1335.02 1258.26 1439.96 1271.11 1439.96C1281.3 1439.97 1708.58 1279.25 1885.46 1212.55Z" fill="#5BB0A9"/>
<path d="M1885.48 1212.56C1743.42 1266.12 1439.82 1380.34 1320.52 1423.2L1106.36 1338.92C1079.23 1333.08 1030.24 1321 1077.78 1302.4C1099.25 1294 1164.35 1293.32 1174.42 1270.52C1142.75 1266.88 1073.83 1272.44 1052.79 1249.96C1069.12 1229.4 1122.86 1239.04 1133.49 1211.44C1103.41 1193.96 1031.02 1203.4 996.392 1203.4C951.22 1203.4 904.164 1205 859.68 1197.04C860.836 1172.04 956.28 1167.64 976.98 1164.84C1011.91 1160.12 1061.92 1154.92 1093.72 1135.64C1098.74 1132.64 1097.11 1125.44 1091.24 1124.4C1043.93 1116.12 891.356 1126.6 895.084 1101.32C897.268 1086.4 965.928 1080.64 977.628 1078.36C994.128 1075.12 1010.2 1067.76 1026.27 1062.52C1032.83 1060.4 1031.8 1051.48 1024.94 1050.56C1005.62 1047.96 980.8 1049.56 965.844 1048.24C953.844 1047.16 890.672 1046.36 885.7 1032.16C883.472 1025.84 922.084 1013.08 957.572 1003.96C964.172 1003.12 970.944 1002.48 977.928 1002.12C1005.74 1000.72 1025.24 1005.84 1051.6 1010.32C1093.94 1017.48 1136.37 1016.64 1178.8 1024.56C1271.12 1041.84 1369.26 1033.88 1463.33 1037.56C1492.38 1038.68 1524.4 1035 1552.81 1041.48C1590.96 1050.2 1628.76 1068.2 1665.91 1080.08C1715.28 1095.88 1769.16 1096.2 1812.57 1125.2C1835.2 1140.32 1857.18 1152.4 1883.54 1161.44C1883.76 1161.52 1883.98 1161.59 1884.2 1161.66C1909.47 1170.16 1910.4 1203.16 1885.48 1212.56Z" fill="#68BAB2"/>
<path d="M3000 1035.28V1785.96C2996.06 1787.88 2991.9 1789.28 2987.57 1790.28C2974.97 1793.4 2961.08 1793.4 2947.8 1793.24C2944.67 1793.2 2941.54 1793.16 2938.42 1793.12H2938.37C2927.23 1792.96 2916.17 1792.8 2905.03 1792.6C2897.83 1792.48 2890.58 1792.32 2883.38 1792.16C2877.73 1792.08 2872.03 1791.96 2866.37 1791.8C2861.36 1791.68 2856.38 1791.56 2851.42 1791.44C2848.59 1791.36 2845.72 1791.32 2842.89 1791.2C2835.09 1791.04 2827.29 1790.8 2819.53 1790.56C2805.26 1790.16 2791.03 1789.68 2776.76 1789.2C2773.98 1789.12 2771.19 1789.04 2768.4 1788.92C2724.95 1787.36 2681.49 1785.44 2638.08 1783.12C2620.98 1782.2 2603.92 1781.24 2586.82 1780.2C2562.26 1778.76 2537.7 1777.16 2513.19 1775.44C2498.36 1774.4 2483.54 1773.32 2468.71 1772.2C2404.68 1767.36 2340.78 1761.72 2276.96 1755.24C2258.96 1753.44 2241.05 1751.56 2223.09 1749.6C2223.05 1749.6 2223.05 1749.6 2223.05 1749.6C2158.93 1742.68 2094.9 1734.92 2031.09 1726.32H2031.01C1966.08 1717.6 1901.32 1708.04 1836.74 1697.64C1757.32 1684.88 1678.21 1670.84 1599.39 1655.52H1599.35C1575.09 1650.84 1550.88 1646 1526.7 1641.08C1526.66 1641.08 1526.62 1641.08 1526.62 1641.04C1428 1620.92 1329.9 1598.8 1232.49 1574.76C1180.29 1561.88 1128.31 1548.44 1076.54 1534.44C1051.38 1527.68 1026.26 1520.76 1001.19 1513.68L1021.38 1515.52C1022.92 1514.76 1024.42 1514 1025.96 1513.24C1032.86 1509.84 1039.76 1506.4 1046.66 1503C1066.89 1492.96 1087.16 1482.92 1107.44 1472.88C1109.79 1471.72 1112.19 1470.52 1114.59 1469.32C1119.86 1466.72 1125.14 1464.12 1130.45 1461.48C1131.26 1461.08 1132.12 1460.68 1132.98 1460.24C1135.89 1458.8 1138.8 1457.36 1141.72 1455.88C1156.64 1448.52 1171.59 1441.12 1186.5 1433.72C1189.42 1432.28 1192.33 1430.84 1195.25 1429.4C1198.42 1427.8 1201.59 1426.24 1204.76 1424.68C1210.21 1421.96 1215.69 1419.28 1221.14 1416.56C1233.05 1410.64 1245.01 1404.76 1256.92 1398.84H1256.97V1398.8C1257.18 1398.72 1257.44 1398.6 1257.65 1398.48H1257.7C1259.88 1397.4 1261.98 1396.32 1264.17 1395.24C1269.57 1392.6 1274.92 1389.92 1280.32 1387.24C1333.42 1360.96 1386.52 1334.64 1439.62 1308.32C1442.45 1306.92 1445.28 1305.52 1448.11 1304.12C1455.78 1300.32 1463.45 1296.52 1471.12 1292.72L1471.17 1292.68C1546.04 1255.64 1620.87 1218.56 1695.74 1181.44C1711.21 1173.8 1726.68 1166.16 1742.16 1158.48C1765.13 1147.08 1788.14 1135.72 1811.11 1124.32L1811.16 1124.28C1838.46 1110.8 1865.71 1097.28 1893.01 1083.76C1899.18 1080.72 1905.36 1077.64 1911.57 1074.64C1919.71 1070.68 1927.85 1066.76 1936.08 1063C1936.21 1062.92 1936.38 1062.84 1936.51 1062.8C1938.96 1061.64 1941.44 1060.52 1943.88 1059.44C1948.64 1057.32 1953.4 1055.28 1958.2 1053.28C1958.2 1053.28 1958.2 1053.28 1958.24 1053.28C1959.96 1052.56 1961.67 1051.84 1963.38 1051.16C1965.91 1050.12 1968.44 1049.12 1970.97 1048.16C1980.05 1044.64 1989.27 1041.4 1998.61 1038.6C2000.54 1038 2002.47 1037.4 2004.4 1036.88C2005.47 1036.56 2006.54 1036.24 2007.61 1036C2009.63 1035.4 2011.64 1034.88 2013.7 1034.36C2014.3 1034.2 2014.94 1034.04 2015.54 1033.88C2018.11 1033.24 2020.77 1032.64 2023.38 1032.08C2026.81 1031.28 2030.28 1030.6 2033.76 1029.96C2095.17 1018.76 2158.17 1028.24 2220.53 1036.76C2220.57 1036.76 2220.61 1036.76 2220.61 1036.76C2224.34 1037.28 2228.03 1037.8 2231.76 1038.28C2237.28 1039.04 2242.81 1039.76 2248.34 1040.44C2266.47 1042.72 2284.64 1044.64 2302.86 1046.24H2302.9C2346.14 1050 2389.47 1051.96 2432.89 1052.6C2438.2 1052.68 2443.56 1052.72 2448.87 1052.76C2449.13 1052.76 2449.34 1052.8 2449.56 1052.76C2484.1 1053 2518.68 1052.48 2553.27 1051.4C2568.32 1050.92 2583.36 1050.32 2598.4 1049.68C2610.66 1049.12 2622.92 1048.56 2635.17 1047.88C2691.74 1044.96 2748.32 1041.12 2804.84 1037.4C2812.64 1036.92 2820.44 1036.4 2828.24 1035.88C2840.84 1035.08 2853.44 1034.28 2866.04 1033.52C2883.23 1032.48 2900.42 1031.48 2917.6 1030.56C2945.02 1029.08 2974.28 1028.32 3000 1035.28Z" fill="#2F8C77"/>
<path d="M3000 1035.28V1785.96C2996.06 1787.88 2991.9 1789.28 2987.57 1790.28C2974.97 1793.4 2961.08 1793.4 2947.8 1793.24C2944.67 1793.2 2941.63 1793.16 2938.5 1793.08H2938.46C2927.31 1792.96 2916.17 1792.8 2905.03 1792.6C2897.83 1792.48 2890.58 1792.32 2883.38 1792.16C2877.73 1792.08 2872.03 1791.96 2866.37 1791.8C2861.36 1791.68 2856.38 1791.56 2851.42 1791.44C2848.59 1791.36 2845.72 1791.32 2842.89 1791.2C2835.09 1791.04 2827.29 1790.8 2819.53 1790.56C2805.26 1790.16 2791.03 1789.68 2776.76 1789.2C2774.92 1786.32 2773.33 1783.2 2771.92 1779.84C2771.19 1778.04 2770.63 1776.28 2770.24 1774.56C2768.53 1767.28 2769.86 1760.44 2772.86 1754V1753.96C2776.29 1746.6 2781.94 1739.84 2787.99 1733.44C2809.68 1710.48 2836.24 1693.04 2782.68 1677.08C2781.56 1676.76 2780.45 1676.4 2779.25 1676.08C2734.46 1663.56 2686.08 1662.4 2638.08 1660.44C2618.75 1659.68 2599.5 1658.76 2580.6 1656.88C2575.68 1656.4 2570.75 1655.88 2565.9 1655.24C2565.86 1655.2 2565.86 1655.2 2565.86 1655.24C2550.99 1653.36 2536.46 1650.76 2522.23 1647.04C2515.55 1645.32 2508.95 1643.32 2502.43 1641.04C2460.78 1626.48 2437.68 1602.92 2484.48 1576.88C2498.1 1569.28 2512.89 1563.68 2528.45 1559.36C2547.86 1554.04 2568.48 1550.8 2589.56 1548.52C2605.59 1546.72 2621.88 1545.52 2638.08 1544.32C2648.84 1543.52 2659.55 1542.76 2670.14 1541.84C2670.14 1541.84 2670.14 1541.84 2670.18 1541.84C2696.19 1539.6 2721.39 1536.48 2744.36 1530.36C2755.46 1527.4 2785.81 1519.24 2803.64 1508.6C2810.75 1504.4 2815.85 1499.76 2816.92 1494.92C2817.82 1490.88 2816.54 1487.04 2813.66 1483.4C2811.82 1481.08 2809.29 1478.8 2806.34 1476.64C2788.08 1463.52 2752.12 1454.24 2740.46 1450.08C2707.25 1438.32 2672.96 1429.92 2638.08 1423.32C2623.55 1420.56 2608.94 1418.12 2594.24 1415.88C2577.31 1413.32 2560.29 1411 2543.24 1408.76C2453.75 1397.08 2363.58 1387.72 2281.04 1355.32C2268.82 1311.48 2422.72 1319.8 2503.98 1299.6C2525.8 1294.16 2523.78 1264.8 2501.5 1261.64C2439.4 1252.88 2372.28 1255.84 2312.11 1252.32C2270.5 1249.92 2212.3 1251.68 2163.91 1243.48C2149.6 1241.04 2144.54 1227.96 2148.78 1218C2150.37 1214.12 2153.37 1210.76 2157.78 1208.64C2159.58 1207.76 2161.6 1207.12 2163.87 1206.72C2191.51 1202.04 2224.04 1202.28 2238.61 1199.92C2270.54 1194.72 2338.94 1190.92 2358.61 1161.96C2345.46 1153.92 2327.8 1148.8 2308.6 1145.36C2273.8 1139.04 2233.72 1138.12 2205.48 1134.64C2153.96 1128.24 2104.76 1119.92 2053.76 1111.2C2034.91 1107.96 1989.35 1102.4 1950.78 1090.8H1950.74C1936.04 1086.36 1922.36 1081.04 1911.56 1074.64C1919.71 1070.68 1927.85 1066.76 1936.08 1063C1936.21 1062.92 1936.38 1062.84 1936.51 1062.8C1938.95 1061.64 1941.44 1060.52 1943.88 1059.44C1948.64 1057.32 1953.39 1055.28 1958.19 1053.28C1958.19 1053.28 1958.19 1053.28 1958.24 1053.28C1959.95 1052.56 1961.66 1051.84 1963.38 1051.16C1965.91 1050.12 1968.44 1049.12 1970.96 1048.16C1980.05 1044.64 1989.26 1041.4 1998.61 1038.6C2000.54 1038 2002.46 1037.4 2004.39 1036.88C2005.46 1036.56 2006.54 1036.24 2007.61 1036C2009.62 1035.4 2011.64 1034.88 2013.69 1034.36C2014.29 1034.2 2014.94 1034.04 2015.54 1033.88C2018.11 1033.24 2020.76 1032.64 2023.38 1032.08C2026.81 1031.28 2030.28 1030.6 2033.75 1029.96C2095.17 1018.76 2158.17 1028.24 2220.52 1036.76C2220.57 1036.76 2220.61 1036.76 2220.61 1036.76C2224.34 1037.28 2228.02 1037.8 2231.75 1038.28C2237.28 1039.04 2242.81 1039.76 2248.34 1040.44C2266.46 1042.72 2284.64 1044.64 2302.85 1046.24H2302.9C2346.14 1050 2389.47 1051.96 2432.88 1052.6C2438.2 1052.68 2443.56 1052.72 2448.87 1052.76C2449.12 1052.76 2449.34 1052.8 2449.55 1052.76C2484.1 1053 2518.68 1052.48 2553.27 1051.4C2568.31 1050.92 2583.35 1050.32 2598.4 1049.68C2610.65 1049.12 2622.91 1048.56 2635.17 1047.88C2691.74 1044.96 2748.31 1041.12 2804.84 1037.4C2812.64 1036.92 2820.44 1036.4 2828.24 1035.88C2840.84 1035.08 2853.44 1034.28 2866.04 1033.52C2883.23 1032.48 2900.41 1031.48 2917.6 1030.56C2945.02 1029.08 2974.28 1028.32 3000 1035.28Z" fill="#3B967E"/>
<path d="M-5.66402e-05 1043.59V1077.35V1078.99V1106.67V1416.75C25.4599 1422.67 50.9599 1428.31 76.5039 1433.59C177.608 1454.47 281.032 1471.07 384.068 1484.43C412.016 1488.07 439.924 1491.47 467.784 1494.63C585.632 1508.03 697.556 1542.79 816.78 1540.67C957.424 1538.23 1098.63 1532.19 1239.23 1532.51C1269.67 1532.59 1299.55 1532.47 1329.09 1531.47C1383.14 1529.67 1436.25 1524.83 1490.21 1512.43C1492.87 1511.83 1495.49 1511.19 1498.16 1510.55C1497.43 1475.15 1440.71 1458.91 1413.02 1449.83C1380.95 1439.35 1349.35 1428.23 1320.59 1411.47C1308.7 1404.55 1297.23 1397.23 1285.51 1390.43C1271.17 1381.99 1256.45 1374.27 1240.22 1368.59C1210.94 1358.39 1181.66 1347.51 1152.94 1336.03C1118.38 1322.27 1090.6 1305.31 1053.38 1297.83C1023.93 1291.91 991.86 1281.35 964.724 1269.03C926.516 1251.63 895.688 1231.75 850.868 1236.95C830.86 1239.27 812.66 1245.55 792.436 1241.71C779.172 1239.23 767.192 1232.27 753.324 1232.39C751.864 1232.39 750.404 1232.43 748.944 1232.47C721.596 1233.43 690.856 1240.67 663.336 1243.15C620.832 1246.95 583.44 1247.79 543.856 1231.35C508.78 1216.79 471.344 1215.59 435.108 1204.75C414.8 1198.67 392.908 1195.43 372.984 1188.39C355.252 1182.11 339.412 1171.95 322.24 1164.67C290.04 1151.11 264.452 1134.87 235 1117.23C217.612 1106.87 197.82 1101.59 180.048 1091.87C165.924 1084.07 150.212 1083.39 134.152 1081.15C129 1080.43 123.848 1079.59 118.696 1078.27C96.4999 1072.63 74.8639 1059.27 53.1399 1051.83C47.1719 1049.75 41.0759 1048.11 34.8959 1046.79C31.6759 1046.11 28.4119 1045.55 25.1519 1045.03C16.8679 1043.71 8.45194 1042.95 -0.00805664 1042.59V1043.59H-5.66402e-05Z" fill="#AECE74"/>
<path d="M1498.16 1510.56C1495.5 1511.2 1492.88 1511.84 1490.21 1512.44C1450.8 1521.48 1411.86 1526.52 1372.62 1529.24C1357.76 1520.92 1345.4 1513.76 1338.79 1510.6C1298.43 1491.4 1260.61 1481.36 1216.52 1472.44C1193.2 1467.72 1170.62 1461.92 1146.66 1460.4C1131.16 1459.4 1114.72 1462.36 1100.34 1456.12C1099.52 1445.12 1110.77 1438.52 1121.51 1435.8C1112.88 1418.12 1066.51 1416.92 1048.01 1413.52C1007.61 1406.04 964.764 1414.76 924.276 1410.28C914.916 1409.24 911.48 1398.56 918.568 1392.8C926.468 1386.44 936.256 1381.64 944.8 1375.6C950.852 1371.36 950.124 1362.76 943.596 1359.16C906.932 1338.96 847.728 1345.04 808.704 1344.92C760.748 1344.72 711.808 1343.12 663.764 1341.12C657.196 1340.84 653.848 1333.68 658.096 1329C665.908 1320.32 678.704 1312.48 690.208 1306.68C696.476 1303.48 695.444 1294.88 688.576 1293.04C671.104 1288.44 649.336 1288.24 633.492 1286.72C593.996 1282.92 554.112 1284.24 514.484 1284.24H407.64C386.388 1284.24 360.112 1287.72 337.832 1284.44C331.092 1283.48 328.904 1275.4 334.224 1271.44C347.276 1261.72 371.748 1253.64 389.476 1247.52C396 1245.24 396.388 1236.84 390.164 1233.96C363.804 1221.88 328.428 1216.44 301.896 1210.24C275.192 1204 248.316 1197.72 221.484 1192.08C205.556 1188.72 157.472 1188.36 156.528 1169.04C155.928 1156.8 177.864 1146.16 187.268 1140.72C166.104 1124.04 106.684 1123.8 79.464 1122.48C53.748 1121.2 26.272 1118.08 -0.00402832 1112.2V1042.6C8.45197 1042.96 16.868 1043.72 25.156 1045.04C28.42 1045.56 31.68 1046.12 34.9 1046.8C41.08 1048.12 47.18 1049.76 53.144 1051.84C74.868 1059.28 96.504 1072.64 118.7 1078.28C123.852 1079.6 129.004 1080.44 134.156 1081.16C150.212 1083.4 165.924 1084.08 180.052 1091.88C197.828 1101.6 217.616 1106.88 235.004 1117.24C264.456 1134.88 290.044 1151.12 322.24 1164.68C339.412 1171.96 355.256 1182.12 372.988 1188.4C392.908 1195.44 414.804 1198.68 435.112 1204.76C471.348 1215.6 508.784 1216.8 543.86 1231.36C583.444 1247.8 620.836 1246.96 663.34 1243.16C690.86 1240.68 721.6 1233.44 748.948 1232.48C750.408 1232.44 751.868 1232.4 753.328 1232.4C767.196 1232.28 779.172 1239.24 792.44 1241.72C812.66 1245.56 830.864 1239.28 850.872 1236.96C895.692 1231.76 926.516 1251.64 964.728 1269.04C991.86 1281.36 1023.93 1291.92 1053.38 1297.84C1090.61 1305.32 1118.38 1322.28 1152.94 1336.04C1181.66 1347.52 1210.94 1358.4 1240.22 1368.6C1256.45 1374.28 1271.18 1382 1285.52 1390.44C1297.24 1397.24 1308.7 1404.56 1320.59 1411.48C1349.36 1428.24 1380.96 1439.36 1413.02 1449.84C1440.71 1458.92 1497.43 1475.16 1498.16 1510.56Z" fill="#C6DD94"/>
</g>
<defs>
<clipPath id="clip0_2_5">
<rect width="3000" height="2000" fill="white"/>
</clipPath>
</defs>
</svg>
