<svg width="383" height="94" viewBox="0 0 383 94" fill="none" xmlns="http://www.w3.org/2000/svg">
<path d="M0.96 79.08C0.96 74.4 3.84 70.92 9.096 70.92C14.352 70.92 17.232 74.4 17.232 79.08C17.232 83.76 14.352 87.24 9.096 87.24C3.84 87.24 0.96 83.76 0.96 79.08ZM4.296 79.68C4.8 83.712 6.48 86.376 10.176 85.92C13.392 85.512 14.4 82.536 13.896 78.48C13.368 74.448 11.712 71.784 8.016 72.24C4.8 72.648 3.816 75.624 4.296 79.68ZM18.7256 81C18.7256 77.76 20.5496 74.76 25.3256 74.76C29.3576 74.76 31.3256 77.016 31.2056 80.04L27.8936 79.56C28.1336 77.208 27.1256 76.008 25.3016 76.008C22.8536 76.008 22.0376 77.928 22.0376 81C22.0376 84.072 22.8536 85.992 25.3016 85.992C27.1256 85.992 28.3736 84.792 28.1336 82.2L31.4456 81.72C31.5656 84.984 29.3336 87.24 25.3016 87.24C20.5256 87.24 18.7256 84.24 18.7256 81ZM32.9053 81C32.9053 77.76 34.9453 74.76 39.4813 74.76C44.0173 74.76 46.0573 77.76 46.0573 81C46.0573 84.24 44.0173 87.24 39.4813 87.24C34.9453 87.24 32.9053 84.24 32.9053 81ZM36.2413 81.408C36.6253 84.432 37.7773 86.232 40.1533 85.944C42.4093 85.656 43.1053 83.64 42.7213 80.592C42.3373 77.568 41.1853 75.768 38.8093 76.056C36.5533 76.344 35.8573 78.36 36.2413 81.408ZM60.0981 84.12C60.0981 85.656 60.4341 86.232 61.2981 86.232V87H55.5861V86.232C56.4501 86.232 56.7861 85.656 56.7861 84.12V78.528C56.7861 76.92 56.2581 76.008 54.9381 76.008C52.4901 76.008 51.3861 79.392 51.3861 82.68V84.12C51.3861 85.656 51.7221 86.232 52.5861 86.232V87H46.8741V86.232C47.7381 86.232 48.0741 85.656 48.0741 84.12V77.88C48.0741 76.344 47.7381 75.768 46.8741 75.768V75H48.4581C50.3301 75 51.3861 75.12 51.3861 76.992V78.456H51.6261C52.1301 76.2 53.5221 74.76 55.9461 74.76C58.3941 74.76 60.0981 76.224 60.0981 79.344V84.12ZM70.4398 83.112L73.7518 82.488C73.9918 85.056 72.0958 87.24 68.4958 87.24C63.8398 87.24 61.9678 84.672 61.9678 81.312C61.9678 77.232 64.7038 74.76 68.7358 74.76C71.7118 74.76 73.8238 76.032 73.8238 78.288C73.8238 81.96 68.4958 82.368 65.2798 81.552C65.3038 83.976 66.2638 85.992 68.3998 85.992C69.8878 85.992 70.7518 85.32 70.4398 83.112ZM68.4238 76.008C66.3838 76.008 65.5198 77.64 65.3278 80.256C68.7358 81.072 70.5118 80.208 70.5118 78.216C70.5118 76.8 69.8158 76.008 68.4238 76.008ZM83.682 83.112L86.994 82.488C87.234 85.056 85.338 87.24 81.738 87.24C77.082 87.24 75.21 84.672 75.21 81.312C75.21 77.232 77.946 74.76 81.978 74.76C84.954 74.76 87.066 76.032 87.066 78.288C87.066 81.96 81.738 82.368 78.522 81.552C78.546 83.976 79.506 85.992 81.642 85.992C83.13 85.992 83.994 85.32 83.682 83.112ZM81.666 76.008C79.626 76.008 78.762 77.64 78.57 80.256C81.978 81.072 83.754 80.208 83.754 78.216C83.754 76.8 83.058 76.008 81.666 76.008ZM94.1709 79.08C94.1709 73.92 96.9309 70.92 102.259 70.92C106.603 70.92 109.075 73.176 108.955 76.68L105.643 76.2C105.883 73.8 104.827 72.168 102.259 72.168C98.8269 72.168 97.4829 74.88 97.4829 79.08C97.4829 83.28 98.5869 85.992 102.019 85.992C104.827 85.992 105.883 84.36 105.643 81.72L108.955 81.24C109.075 84.984 106.603 87.24 102.019 87.24C96.6909 87.24 94.1709 84.24 94.1709 79.08ZM110.882 81C110.882 77.76 112.922 74.76 117.458 74.76C121.994 74.76 124.034 77.76 124.034 81C124.034 84.24 121.994 87.24 117.458 87.24C112.922 87.24 110.882 84.24 110.882 81ZM114.218 81.408C114.602 84.432 115.754 86.232 118.13 85.944C120.386 85.656 121.082 83.64 120.698 80.592C120.314 77.568 119.162 75.768 116.786 76.056C114.53 76.344 113.834 78.36 114.218 81.408ZM139.228 75.768C138.364 75.768 138.028 76.344 138.028 77.88V84.12C138.028 85.656 138.364 86.232 139.228 86.232V87H137.644C135.772 87 134.716 86.88 134.716 85.008V83.544H134.476C133.972 85.8 132.58 87.24 130.156 87.24C127.708 87.24 126.004 85.776 126.004 82.656V77.88C126.004 76.344 125.668 75.768 124.804 75.768V75H130.516V75.768C129.652 75.768 129.316 76.344 129.316 77.88V83.472C129.316 85.08 129.844 85.992 131.164 85.992C133.612 85.992 134.716 82.608 134.716 79.32V77.88C134.716 76.344 134.38 75.768 133.516 75.768V75H139.228V75.768ZM153.989 84.12C153.989 85.656 154.325 86.232 155.189 86.232V87H149.477V86.232C150.341 86.232 150.677 85.656 150.677 84.12V78.528C150.677 76.92 150.149 76.008 148.829 76.008C146.381 76.008 145.277 79.392 145.277 82.68V84.12C145.277 85.656 145.613 86.232 146.477 86.232V87H140.765V86.232C141.629 86.232 141.965 85.656 141.965 84.12V77.88C141.965 76.344 141.629 75.768 140.765 75.768V75H142.349C144.221 75 145.277 75.12 145.277 76.992V78.456H145.517C146.021 76.2 147.413 74.76 149.837 74.76C152.285 74.76 153.989 76.224 153.989 79.344V84.12ZM162.302 84.72L164.75 85.2C164.27 86.568 163.142 87.24 161.174 87.24C159.23 87.24 157.094 86.544 157.094 83.352V76.248H155.366V75C157.214 74.76 158.294 74.232 158.294 71.16H160.406V75H164.03C164.03 75.768 164.03 76.248 162.878 76.248H160.406V82.92C160.406 84.816 160.43 85.992 161.39 85.992C161.99 85.992 162.254 85.68 162.302 84.72ZM181.378 75V75.768C180.346 75.768 179.434 76.248 178.858 77.664L174.706 87.984C173.65 90.552 172.498 91.8 170.002 91.8C167.146 91.8 165.634 90.12 166.618 87.48L169.93 87.96C168.826 89.88 169.546 90.552 170.506 90.552C171.61 90.552 172.594 89.88 173.362 87.984L173.746 87H171.082L167.362 77.664C166.786 76.248 165.874 75.768 164.842 75.768V75H172.234V75.768C170.506 75.768 170.338 76.248 170.914 77.664L174.202 85.872L177.514 77.664C178.09 76.248 177.922 75.768 176.194 75.768V75H181.378Z" fill="#F7F7EE"/>
<path d="M31.536 39.118C33.642 45.76 35.478 47.272 38.664 47.272V49C30.24 49 26.19 48.136 24.192 40.63C22.356 34.042 22.302 29.668 15.93 29.614L12.312 32.746V42.52C12.312 45.976 13.068 47.272 15.012 47.272V49H2.16V47.272C4.104 47.272 4.86 45.976 4.86 42.52V19.84C4.86 16.384 4.104 15.088 2.16 15.088V13.36H15.012V15.088C13.068 15.088 12.312 16.384 12.312 19.84V29.02L25.542 17.572C28.188 15.358 28.512 15.088 23.436 15.088V13.36H37.746V15.088C35.64 15.088 32.562 15.358 29.916 17.572L19.008 26.968L19.656 26.428V26.968C27.054 26.86 29.052 31.288 31.536 39.118ZM65.6935 42.304C65.6935 45.328 66.6655 45.814 68.3935 44.788V46.84C67.4755 48.244 65.4235 49 63.3715 49C61.3735 49 58.5655 48.46 58.2415 45.382V45.004H57.7015C56.0815 47.542 52.6795 49.54 47.8735 49.54C42.2035 49.54 39.1795 47.326 39.1795 42.79C39.1795 34.96 50.6275 33.124 58.1875 32.26C57.9715 26.698 56.9455 24.268 52.6255 24.268C48.1975 24.268 46.4695 26.752 48.0895 30.91L40.9615 32.314C39.3415 26.374 43.7155 21.46 53.3815 21.46C62.1835 21.46 65.6935 25.078 65.6935 34.744V42.304ZM58.2415 38.632V37.984V35.014C51.8695 35.716 46.6315 38.092 46.6315 42.466C46.6315 45.328 47.8195 46.732 50.4655 46.732C55.1095 46.732 58.2415 42.196 58.2415 38.632ZM80.3393 14.872V42.52C80.3393 45.976 81.0953 47.272 83.0393 47.272V49H70.1873V47.272C72.1313 47.272 72.8873 45.976 72.8873 42.52V16.6C72.8873 13.144 72.1313 11.848 70.1873 11.848V10.12H73.7513C77.9633 10.12 80.3393 10.444 80.3393 14.872ZM130.411 42.52C130.411 45.976 131.167 47.272 133.111 47.272V49H120.259V47.272C122.203 47.272 122.959 45.976 122.959 42.52V28.75C122.959 25.78 121.879 24.268 119.935 24.268C115.885 24.268 112.969 31.45 112.969 39.28V42.52C112.969 45.976 113.725 47.272 115.669 47.272V49H102.817V47.272C104.761 47.272 105.517 45.976 105.517 42.52V28.75C105.517 25.78 104.437 24.268 102.493 24.268C98.4428 24.268 95.5268 31.45 95.5268 39.28V42.52C95.5268 45.976 96.2828 47.272 98.2268 47.272V49H85.3748V47.272C87.3188 47.272 88.0748 45.976 88.0748 42.52V28.48C88.0748 25.024 87.3188 23.728 85.3748 23.728V22H88.9388C93.1508 22 95.5268 22.27 95.5268 26.482V29.776H96.0668C97.4168 24.484 100.333 21.46 105.247 21.46C109.729 21.46 112.591 24.106 112.915 29.776H113.401C114.859 24.484 117.775 21.46 122.689 21.46C127.441 21.46 130.411 24.43 130.411 30.91V42.52ZM141.569 19.408C139.085 19.408 137.627 18.004 137.627 16.06C137.627 14.278 139.085 12.82 141.569 12.82C143.999 12.82 145.511 14.278 145.511 16.06C145.511 18.004 143.999 19.408 141.569 19.408ZM145.835 26.698V42.52C145.835 45.976 146.591 47.272 148.535 47.272V49H135.683V47.272C137.627 47.272 138.383 45.976 138.383 42.52V28.48C138.383 25.024 137.627 23.728 135.683 23.728V22H139.247C143.621 22 145.835 22.27 145.835 26.698ZM177.649 42.304C177.649 45.328 178.621 45.814 180.349 44.788V46.84C179.431 48.244 177.379 49 175.327 49C173.329 49 170.521 48.46 170.197 45.382V45.004H169.657C168.037 47.542 164.635 49.54 159.829 49.54C154.159 49.54 151.135 47.326 151.135 42.79C151.135 34.96 162.583 33.124 170.143 32.26C169.927 26.698 168.901 24.268 164.581 24.268C160.153 24.268 158.425 26.752 160.045 30.91L152.917 32.314C151.297 26.374 155.671 21.46 165.337 21.46C174.139 21.46 177.649 25.078 177.649 34.744V42.304ZM170.197 38.632V37.984V35.014C163.825 35.716 158.587 38.092 158.587 42.466C158.587 45.328 159.775 46.732 162.421 46.732C167.065 46.732 170.197 42.196 170.197 38.632ZM259.643 13.36V15.088C257.321 15.088 255.431 16.222 254.351 19.516L244.415 49H236.639L227.405 18.112L218.117 49H210.287L200.513 19.516C199.433 16.222 197.543 15.088 195.221 15.088V13.36H211.691V15.088C207.803 15.088 207.263 16.222 208.343 19.516L216.551 44.302L225.947 13.36H233.669L243.011 44.41L251.381 19.516C252.461 16.222 251.921 15.088 248.033 15.088V13.36H259.643ZM254.283 35.5C254.283 28.21 258.873 21.46 269.079 21.46C279.285 21.46 283.875 28.21 283.875 35.5C283.875 42.79 279.285 49.54 269.079 49.54C258.873 49.54 254.283 42.79 254.283 35.5ZM261.789 36.418C262.653 43.222 265.245 47.272 270.591 46.624C275.667 45.976 277.233 41.44 276.369 34.582C275.505 27.778 272.913 23.728 267.567 24.376C262.491 25.024 260.925 29.56 261.789 36.418ZM287.137 35.5C287.137 28.21 291.727 21.46 301.933 21.46C312.139 21.46 316.729 28.21 316.729 35.5C316.729 42.79 312.139 49.54 301.933 49.54C291.727 49.54 287.137 42.79 287.137 35.5ZM294.643 36.418C295.507 43.222 298.099 47.272 303.445 46.624C308.521 45.976 310.087 41.44 309.223 34.582C308.359 27.778 305.767 23.728 300.421 24.376C295.345 25.024 293.779 29.56 294.643 36.418ZM319.99 35.5C319.99 26.32 325.768 21.46 332.68 21.46C337.054 21.46 340.834 23.512 342.778 27.076H343.318V16.6C343.318 13.144 342.562 11.848 340.618 11.848V10.12H344.182C348.394 10.12 350.77 10.444 350.77 14.872V42.52C350.77 45.976 351.526 47.272 353.47 47.272V49H349.906C345.856 49 343.318 48.73 343.318 44.95V43.924H342.778C340.834 47.488 337.054 49.54 332.68 49.54C325.768 49.54 319.99 44.68 319.99 35.5ZM327.982 35.5C327.982 42.25 330.142 46.732 335.218 46.732C340.294 46.732 342.778 42.25 342.778 35.5C342.778 28.75 340.294 24.268 335.218 24.268C330.142 24.268 327.982 28.75 327.982 35.5ZM356.746 29.02C356.746 23.566 361.876 21.46 368.464 21.46C375.322 21.46 382.234 23.836 380.074 31.45L372.622 30.37C374.242 25.456 371.326 24.268 368.626 24.268C365.332 24.268 364.198 25.888 364.198 27.778C364.198 30.262 365.44 31.234 370.246 32.584C375.97 34.15 381.208 35.554 381.208 41.224C381.208 47.434 375.646 49.54 369.49 49.54C361.984 49.54 354.424 47.164 356.584 38.038L364.036 39.118C361.876 45.274 365.116 46.732 369.058 46.732C372.406 46.732 373.756 44.95 373.756 42.574C373.756 39.496 371.11 38.632 367.222 37.444C361.282 35.77 356.746 34.312 356.746 29.02Z" fill="#E3E3C4"/>
</svg>
