<svg aria-roledescription="er" role="graphics-document document" viewBox="0 0 640.328125 544" style="max-width: 640.328px; background-color: white;" xmlns:xlink="http://www.w3.org/1999/xlink" xmlns="http://www.w3.org/2000/svg" width="100%" id="mermaid-0"><style>#mermaid-0{font-family:"trebuchet ms",verdana,arial,sans-serif;font-size:16px;fill:#333;}#mermaid-0 .error-icon{fill:#552222;}#mermaid-0 .error-text{fill:#552222;stroke:#552222;}#mermaid-0 .edge-thickness-normal{stroke-width:2px;}#mermaid-0 .edge-thickness-thick{stroke-width:3.5px;}#mermaid-0 .edge-pattern-solid{stroke-dasharray:0;}#mermaid-0 .edge-pattern-dashed{stroke-dasharray:3;}#mermaid-0 .edge-pattern-dotted{stroke-dasharray:2;}#mermaid-0 .marker{fill:#333333;stroke:#333333;}#mermaid-0 .marker.cross{stroke:#333333;}#mermaid-0 svg{font-family:"trebuchet ms",verdana,arial,sans-serif;font-size:16px;}#mermaid-0 .entityBox{fill:#ECECFF;stroke:#9370DB;}#mermaid-0 .attributeBoxOdd{fill:#ffffff;stroke:#9370DB;}#mermaid-0 .attributeBoxEven{fill:#f2f2f2;stroke:#9370DB;}#mermaid-0 .relationshipLabelBox{fill:hsl(80, 100%, 96.2745098039%);opacity:0.7;background-color:hsl(80, 100%, 96.2745098039%);}#mermaid-0 .relationshipLabelBox rect{opacity:0.5;}#mermaid-0 .relationshipLine{stroke:#333333;}#mermaid-0 .entityTitleText{text-anchor:middle;font-size:18px;fill:#333;}#mermaid-0 :root{--mermaid-font-family:"trebuchet ms",verdana,arial,sans-serif;}</style><g/><defs><marker orient="auto" markerHeight="18" markerWidth="18" refY="9" refX="0" id="ONLY_ONE_START"><path d="M9,0 L9,18 M15,0 L15,18" fill="none" stroke="gray"/></marker></defs><defs><marker orient="auto" markerHeight="18" markerWidth="18" refY="9" refX="18" id="ONLY_ONE_END"><path d="M3,0 L3,18 M9,0 L9,18" fill="none" stroke="gray"/></marker></defs><defs><marker orient="auto" markerHeight="18" markerWidth="30" refY="9" refX="0" id="ZERO_OR_ONE_START"><circle r="6" cy="9" cx="21" fill="white" stroke="gray"/><path d="M9,0 L9,18" fill="none" stroke="gray"/></marker></defs><defs><marker orient="auto" markerHeight="18" markerWidth="30" refY="9" refX="30" id="ZERO_OR_ONE_END"><circle r="6" cy="9" cx="9" fill="white" stroke="gray"/><path d="M21,0 L21,18" fill="none" stroke="gray"/></marker></defs><defs><marker orient="auto" markerHeight="36" markerWidth="45" refY="18" refX="18" id="ONE_OR_MORE_START"><path d="M0,18 Q 18,0 36,18 Q 18,36 0,18 M42,9 L42,27" fill="none" stroke="gray"/></marker></defs><defs><marker orient="auto" markerHeight="36" markerWidth="45" refY="18" refX="27" id="ONE_OR_MORE_END"><path d="M3,9 L3,27 M9,18 Q27,0 45,18 Q27,36 9,18" fill="none" stroke="gray"/></marker></defs><defs><marker orient="auto" markerHeight="36" markerWidth="57" refY="18" refX="18" id="ZERO_OR_MORE_START"><circle r="6" cy="18" cx="48" fill="white" stroke="gray"/><path d="M0,18 Q18,0 36,18 Q18,36 0,18" fill="none" stroke="gray"/></marker></defs><defs><marker orient="auto" markerHeight="36" markerWidth="57" refY="18" refX="39" id="ZERO_OR_MORE_END"><circle r="6" cy="18" cx="9" fill="white" stroke="gray"/><path d="M21,18 Q39,0 57,18 Q39,36 21,18" fill="none" stroke="gray"/></marker></defs><path style="stroke: gray; fill: none;" marker-start="url(#ZERO_OR_ONE_START)" marker-end="url(#ONLY_ONE_END)" d="M285.33203125,163.2970631892814L249.443359375,181.33088599106782C213.5546875,199.36470879285426,141.77734375,235.43235439642714,105.888671875,273.0078438648802C70,310.5833333333333,70,349.6666666666667,70,369.2083333333333L70,388.75" class="er relationshipLine"/><path style="stroke: gray; fill: none;" marker-start="url(#ZERO_OR_MORE_START)" marker-end="url(#ZERO_OR_MORE_END)" d="M285.33203125,213.55216409644714L276.5201822916667,223.2101367470393C267.7083333333333,232.86810939763143,250.08463541666666,252.1840546988157,247.05429472279616,275.84202734940783C244.0239540289256,299.5,255.58697055785123,327.5,261.36847882231405,341.5L267.14998708677683,355.5" class="er relationshipLine"/><path style="stroke: gray; fill: none;" marker-start="url(#ZERO_OR_MORE_START)" marker-end="url(#ZERO_OR_MORE_END)" d="M436.836410395937,221.5L442.36432637161414,229.83333333333334C447.89224234729136,238.16666666666666,458.9480742986457,254.83333333333334,468.6127413073807,271.5C478.2774083161157,288.1666666666667,486.55091038223145,304.8333333333333,490.6876614152893,313.1666666666667L494.8244124483471,321.5" class="er relationshipLine"/><path style="stroke: gray; fill: none;" marker-start="url(#ZERO_OR_ONE_START)" marker-end="url(#ONLY_ONE_END)" d="M578.5570118801653,321.5L581.3118328168044,313.1666666666667C584.0666537534436,304.8333333333333,589.5762956267217,288.1666666666667,568.9294238550275,264.15991348640256C548.2825520833334,240.15316030613837,501.4791666666667,208.80632061227675,478.0774739583333,193.13290076534597L454.67578125,177.45948091841515" class="er relationshipLine"/><path style="stroke: gray; fill: none;" marker-start="url(#ZERO_OR_ONE_START)" marker-end="url(#ONLY_ONE_END)" d="M328.30545583677684,355.5L335.25519757231405,341.5C342.20493930785125,327.5,356.10442277892565,299.5,363.0541645144628,277.1666666666667C370.00390625,254.83333333333334,370.00390625,238.16666666666666,370.00390625,229.83333333333334L370.00390625,221.5" class="er relationshipLine"/><g transform="translate(20,388.75 )" id="entity-Role-8dbdbbc4-0419-5464-aae6-f142fb2ece67"><rect height="68" width="100" y="0" x="0" class="er entityBox"/><text style="dominant-baseline: middle; text-anchor: middle; font-size: 12px;" transform="translate(50,12)" y="0" x="0" id="text-entity-Role-8dbdbbc4-0419-5464-aae6-f142fb2ece67" class="er entityLabel">Role</text><rect height="22" width="50" y="24" x="0" class="er attributeBoxOdd"/><text style="dominant-baseline: middle; font-size: 10.2px;" transform="translate(5,35)" y="0" x="0" id="text-entity-Role-8dbdbbc4-0419-5464-aae6-f142fb2ece67-attr-1-type" class="er entityLabel">User</text><rect height="22" width="50" y="24" x="50" class="er attributeBoxOdd"/><text style="dominant-baseline: middle; font-size: 10.2px;" transform="translate(55,35)" y="0" x="0" id="text-entity-Role-8dbdbbc4-0419-5464-aae6-f142fb2ece67-attr-1-name" class="er entityLabel">User</text><rect height="22" width="50" y="46" x="0" class="er attributeBoxEven"/><text style="dominant-baseline: middle; font-size: 10.2px;" transform="translate(5,57)" y="0" x="0" id="text-entity-Role-8dbdbbc4-0419-5464-aae6-f142fb2ece67-attr-2-type" class="er entityLabel">Admin</text><rect height="22" width="50" y="46" x="50" class="er attributeBoxEven"/><text style="dominant-baseline: middle; font-size: 10.2px;" transform="translate(55,57)" y="0" x="0" id="text-entity-Role-8dbdbbc4-0419-5464-aae6-f142fb2ece67-attr-2-name" class="er entityLabel">Admin</text></g><g transform="translate(285.33203125,20 )" id="entity-users-33ae1e26-be31-5c1d-bf65-e859e9d0308e"><rect height="201.5" width="169.34375" y="0" x="0" class="er entityBox"/><text style="dominant-baseline: middle; text-anchor: middle; font-size: 12px;" transform="translate(84.671875,12)" y="0" x="0" id="text-entity-users-33ae1e26-be31-5c1d-bf65-e859e9d0308e" class="er entityLabel">users</text><rect height="22.5" width="53.6640625" y="24" x="0" class="er attributeBoxOdd"/><text style="dominant-baseline: middle; font-size: 10.2px;" transform="translate(5,35.25)" y="0" x="0" id="text-entity-users-33ae1e26-be31-5c1d-bf65-e859e9d0308e-attr-1-type" class="er entityLabel">Int</text><rect height="22.5" width="93.1796875" y="24" x="53.6640625" class="er attributeBoxOdd"/><text style="dominant-baseline: middle; font-size: 10.2px;" transform="translate(58.6640625,35.25)" y="0" x="0" id="text-entity-users-33ae1e26-be31-5c1d-bf65-e859e9d0308e-attr-1-name" class="er entityLabel">id</text><rect height="22.5" width="22.5" y="24" x="146.84375" class="er attributeBoxOdd"/><text style="dominant-baseline: middle; font-size: 10.2px;" transform="translate(151.84375,35.25)" y="0" x="0" id="text-entity-users-33ae1e26-be31-5c1d-bf65-e859e9d0308e-attr-1-comment" class="er entityLabel">🗝️</text><rect height="22" width="53.6640625" y="46.5" x="0" class="er attributeBoxEven"/><text style="dominant-baseline: middle; font-size: 10.2px;" transform="translate(5,57.5)" y="0" x="0" id="text-entity-users-33ae1e26-be31-5c1d-bf65-e859e9d0308e-attr-2-type" class="er entityLabel">DateTime</text><rect height="22" width="93.1796875" y="46.5" x="53.6640625" class="er attributeBoxEven"/><text style="dominant-baseline: middle; font-size: 10.2px;" transform="translate(58.6640625,57.5)" y="0" x="0" id="text-entity-users-33ae1e26-be31-5c1d-bf65-e859e9d0308e-attr-2-name" class="er entityLabel">created_at</text><rect height="22" width="22.5" y="46.5" x="146.84375" class="er attributeBoxEven"/><text style="dominant-baseline: middle; font-size: 10.2px;" transform="translate(151.84375,57.5)" y="0" x="0" id="text-entity-users-33ae1e26-be31-5c1d-bf65-e859e9d0308e-attr-2-comment" class="er entityLabel"/><rect height="22" width="53.6640625" y="68.5" x="0" class="er attributeBoxOdd"/><text style="dominant-baseline: middle; font-size: 10.2px;" transform="translate(5,79.5)" y="0" x="0" id="text-entity-users-33ae1e26-be31-5c1d-bf65-e859e9d0308e-attr-3-type" class="er entityLabel">DateTime</text><rect height="22" width="93.1796875" y="68.5" x="53.6640625" class="er attributeBoxOdd"/><text style="dominant-baseline: middle; font-size: 10.2px;" transform="translate(58.6640625,79.5)" y="0" x="0" id="text-entity-users-33ae1e26-be31-5c1d-bf65-e859e9d0308e-attr-3-name" class="er entityLabel">updated_at</text><rect height="22" width="22.5" y="68.5" x="146.84375" class="er attributeBoxOdd"/><text style="dominant-baseline: middle; font-size: 10.2px;" transform="translate(151.84375,79.5)" y="0" x="0" id="text-entity-users-33ae1e26-be31-5c1d-bf65-e859e9d0308e-attr-3-comment" class="er entityLabel"/><rect height="22.5" width="53.6640625" y="90.5" x="0" class="er attributeBoxEven"/><text style="dominant-baseline: middle; font-size: 10.2px;" transform="translate(5,101.75)" y="0" x="0" id="text-entity-users-33ae1e26-be31-5c1d-bf65-e859e9d0308e-attr-4-type" class="er entityLabel">DateTime</text><rect height="22.5" width="93.1796875" y="90.5" x="53.6640625" class="er attributeBoxEven"/><text style="dominant-baseline: middle; font-size: 10.2px;" transform="translate(58.6640625,101.75)" y="0" x="0" id="text-entity-users-33ae1e26-be31-5c1d-bf65-e859e9d0308e-attr-4-name" class="er entityLabel">deleted_at</text><rect height="22.5" width="22.5" y="90.5" x="146.84375" class="er attributeBoxEven"/><text style="dominant-baseline: middle; font-size: 10.2px;" transform="translate(151.84375,101.75)" y="0" x="0" id="text-entity-users-33ae1e26-be31-5c1d-bf65-e859e9d0308e-attr-4-comment" class="er entityLabel">❓</text><rect height="22" width="53.6640625" y="113" x="0" class="er attributeBoxOdd"/><text style="dominant-baseline: middle; font-size: 10.2px;" transform="translate(5,124)" y="0" x="0" id="text-entity-users-33ae1e26-be31-5c1d-bf65-e859e9d0308e-attr-5-type" class="er entityLabel">String</text><rect height="22" width="93.1796875" y="113" x="53.6640625" class="er attributeBoxOdd"/><text style="dominant-baseline: middle; font-size: 10.2px;" transform="translate(58.6640625,124)" y="0" x="0" id="text-entity-users-33ae1e26-be31-5c1d-bf65-e859e9d0308e-attr-5-name" class="er entityLabel">email</text><rect height="22" width="22.5" y="113" x="146.84375" class="er attributeBoxOdd"/><text style="dominant-baseline: middle; font-size: 10.2px;" transform="translate(151.84375,124)" y="0" x="0" id="text-entity-users-33ae1e26-be31-5c1d-bf65-e859e9d0308e-attr-5-comment" class="er entityLabel"/><rect height="22.5" width="53.6640625" y="135" x="0" class="er attributeBoxEven"/><text style="dominant-baseline: middle; font-size: 10.2px;" transform="translate(5,146.25)" y="0" x="0" id="text-entity-users-33ae1e26-be31-5c1d-bf65-e859e9d0308e-attr-6-type" class="er entityLabel">DateTime</text><rect height="22.5" width="93.1796875" y="135" x="53.6640625" class="er attributeBoxEven"/><text style="dominant-baseline: middle; font-size: 10.2px;" transform="translate(58.6640625,146.25)" y="0" x="0" id="text-entity-users-33ae1e26-be31-5c1d-bf65-e859e9d0308e-attr-6-name" class="er entityLabel">email_verification</text><rect height="22.5" width="22.5" y="135" x="146.84375" class="er attributeBoxEven"/><text style="dominant-baseline: middle; font-size: 10.2px;" transform="translate(151.84375,146.25)" y="0" x="0" id="text-entity-users-33ae1e26-be31-5c1d-bf65-e859e9d0308e-attr-6-comment" class="er entityLabel">❓</text><rect height="22" width="53.6640625" y="157.5" x="0" class="er attributeBoxOdd"/><text style="dominant-baseline: middle; font-size: 10.2px;" transform="translate(5,168.5)" y="0" x="0" id="text-entity-users-33ae1e26-be31-5c1d-bf65-e859e9d0308e-attr-7-type" class="er entityLabel">String</text><rect height="22" width="93.1796875" y="157.5" x="53.6640625" class="er attributeBoxOdd"/><text style="dominant-baseline: middle; font-size: 10.2px;" transform="translate(58.6640625,168.5)" y="0" x="0" id="text-entity-users-33ae1e26-be31-5c1d-bf65-e859e9d0308e-attr-7-name" class="er entityLabel">password</text><rect height="22" width="22.5" y="157.5" x="146.84375" class="er attributeBoxOdd"/><text style="dominant-baseline: middle; font-size: 10.2px;" transform="translate(151.84375,168.5)" y="0" x="0" id="text-entity-users-33ae1e26-be31-5c1d-bf65-e859e9d0308e-attr-7-comment" class="er entityLabel"/><rect height="22" width="53.6640625" y="179.5" x="0" class="er attributeBoxEven"/><text style="dominant-baseline: middle; font-size: 10.2px;" transform="translate(5,190.5)" y="0" x="0" id="text-entity-users-33ae1e26-be31-5c1d-bf65-e859e9d0308e-attr-8-type" class="er entityLabel">Role</text><rect height="22" width="93.1796875" y="179.5" x="53.6640625" class="er attributeBoxEven"/><text style="dominant-baseline: middle; font-size: 10.2px;" transform="translate(58.6640625,190.5)" y="0" x="0" id="text-entity-users-33ae1e26-be31-5c1d-bf65-e859e9d0308e-attr-8-name" class="er entityLabel">role</text><rect height="22" width="22.5" y="179.5" x="146.84375" class="er attributeBoxEven"/><text style="dominant-baseline: middle; font-size: 10.2px;" transform="translate(151.84375,190.5)" y="0" x="0" id="text-entity-users-33ae1e26-be31-5c1d-bf65-e859e9d0308e-attr-8-comment" class="er entityLabel"/></g><g transform="translate(469.84375,321.5 )" id="entity-userprofile-2e2772fe-0657-5ebc-8738-2b4361547190"><rect height="202.5" width="150.484375" y="0" x="0" class="er entityBox"/><text style="dominant-baseline: middle; text-anchor: middle; font-size: 12px;" transform="translate(75.2421875,12)" y="0" x="0" id="text-entity-userprofile-2e2772fe-0657-5ebc-8738-2b4361547190" class="er entityLabel">user_profile</text><rect height="22.5" width="53.6640625" y="24" x="0" class="er attributeBoxOdd"/><text style="dominant-baseline: middle; font-size: 10.2px;" transform="translate(5,35.25)" y="0" x="0" id="text-entity-userprofile-2e2772fe-0657-5ebc-8738-2b4361547190-attr-1-type" class="er entityLabel">Int</text><rect height="22.5" width="74.3203125" y="24" x="53.6640625" class="er attributeBoxOdd"/><text style="dominant-baseline: middle; font-size: 10.2px;" transform="translate(58.6640625,35.25)" y="0" x="0" id="text-entity-userprofile-2e2772fe-0657-5ebc-8738-2b4361547190-attr-1-name" class="er entityLabel">id</text><rect height="22.5" width="22.5" y="24" x="127.984375" class="er attributeBoxOdd"/><text style="dominant-baseline: middle; font-size: 10.2px;" transform="translate(132.984375,35.25)" y="0" x="0" id="text-entity-userprofile-2e2772fe-0657-5ebc-8738-2b4361547190-attr-1-comment" class="er entityLabel">🗝️</text><rect height="22.5" width="53.6640625" y="46.5" x="0" class="er attributeBoxEven"/><text style="dominant-baseline: middle; font-size: 10.2px;" transform="translate(5,57.75)" y="0" x="0" id="text-entity-userprofile-2e2772fe-0657-5ebc-8738-2b4361547190-attr-2-type" class="er entityLabel">String</text><rect height="22.5" width="74.3203125" y="46.5" x="53.6640625" class="er attributeBoxEven"/><text style="dominant-baseline: middle; font-size: 10.2px;" transform="translate(58.6640625,57.75)" y="0" x="0" id="text-entity-userprofile-2e2772fe-0657-5ebc-8738-2b4361547190-attr-2-name" class="er entityLabel">address</text><rect height="22.5" width="22.5" y="46.5" x="127.984375" class="er attributeBoxEven"/><text style="dominant-baseline: middle; font-size: 10.2px;" transform="translate(132.984375,57.75)" y="0" x="0" id="text-entity-userprofile-2e2772fe-0657-5ebc-8738-2b4361547190-attr-2-comment" class="er entityLabel">❓</text><rect height="22.5" width="53.6640625" y="69" x="0" class="er attributeBoxOdd"/><text style="dominant-baseline: middle; font-size: 10.2px;" transform="translate(5,80.25)" y="0" x="0" id="text-entity-userprofile-2e2772fe-0657-5ebc-8738-2b4361547190-attr-3-type" class="er entityLabel">String</text><rect height="22.5" width="74.3203125" y="69" x="53.6640625" class="er attributeBoxOdd"/><text style="dominant-baseline: middle; font-size: 10.2px;" transform="translate(58.6640625,80.25)" y="0" x="0" id="text-entity-userprofile-2e2772fe-0657-5ebc-8738-2b4361547190-attr-3-name" class="er entityLabel">first_name</text><rect height="22.5" width="22.5" y="69" x="127.984375" class="er attributeBoxOdd"/><text style="dominant-baseline: middle; font-size: 10.2px;" transform="translate(132.984375,80.25)" y="0" x="0" id="text-entity-userprofile-2e2772fe-0657-5ebc-8738-2b4361547190-attr-3-comment" class="er entityLabel">❓</text><rect height="22.5" width="53.6640625" y="91.5" x="0" class="er attributeBoxEven"/><text style="dominant-baseline: middle; font-size: 10.2px;" transform="translate(5,102.75)" y="0" x="0" id="text-entity-userprofile-2e2772fe-0657-5ebc-8738-2b4361547190-attr-4-type" class="er entityLabel">String</text><rect height="22.5" width="74.3203125" y="91.5" x="53.6640625" class="er attributeBoxEven"/><text style="dominant-baseline: middle; font-size: 10.2px;" transform="translate(58.6640625,102.75)" y="0" x="0" id="text-entity-userprofile-2e2772fe-0657-5ebc-8738-2b4361547190-attr-4-name" class="er entityLabel">last_name</text><rect height="22.5" width="22.5" y="91.5" x="127.984375" class="er attributeBoxEven"/><text style="dominant-baseline: middle; font-size: 10.2px;" transform="translate(132.984375,102.75)" y="0" x="0" id="text-entity-userprofile-2e2772fe-0657-5ebc-8738-2b4361547190-attr-4-comment" class="er entityLabel">❓</text><rect height="22.5" width="53.6640625" y="114" x="0" class="er attributeBoxOdd"/><text style="dominant-baseline: middle; font-size: 10.2px;" transform="translate(5,125.25)" y="0" x="0" id="text-entity-userprofile-2e2772fe-0657-5ebc-8738-2b4361547190-attr-5-type" class="er entityLabel">String</text><rect height="22.5" width="74.3203125" y="114" x="53.6640625" class="er attributeBoxOdd"/><text style="dominant-baseline: middle; font-size: 10.2px;" transform="translate(58.6640625,125.25)" y="0" x="0" id="text-entity-userprofile-2e2772fe-0657-5ebc-8738-2b4361547190-attr-5-name" class="er entityLabel">mobile_phone</text><rect height="22.5" width="22.5" y="114" x="127.984375" class="er attributeBoxOdd"/><text style="dominant-baseline: middle; font-size: 10.2px;" transform="translate(132.984375,125.25)" y="0" x="0" id="text-entity-userprofile-2e2772fe-0657-5ebc-8738-2b4361547190-attr-5-comment" class="er entityLabel">❓</text><rect height="22" width="53.6640625" y="136.5" x="0" class="er attributeBoxEven"/><text style="dominant-baseline: middle; font-size: 10.2px;" transform="translate(5,147.5)" y="0" x="0" id="text-entity-userprofile-2e2772fe-0657-5ebc-8738-2b4361547190-attr-6-type" class="er entityLabel">DateTime</text><rect height="22" width="74.3203125" y="136.5" x="53.6640625" class="er attributeBoxEven"/><text style="dominant-baseline: middle; font-size: 10.2px;" transform="translate(58.6640625,147.5)" y="0" x="0" id="text-entity-userprofile-2e2772fe-0657-5ebc-8738-2b4361547190-attr-6-name" class="er entityLabel">created_at</text><rect height="22" width="22.5" y="136.5" x="127.984375" class="er attributeBoxEven"/><text style="dominant-baseline: middle; font-size: 10.2px;" transform="translate(132.984375,147.5)" y="0" x="0" id="text-entity-userprofile-2e2772fe-0657-5ebc-8738-2b4361547190-attr-6-comment" class="er entityLabel"/><rect height="22" width="53.6640625" y="158.5" x="0" class="er attributeBoxOdd"/><text style="dominant-baseline: middle; font-size: 10.2px;" transform="translate(5,169.5)" y="0" x="0" id="text-entity-userprofile-2e2772fe-0657-5ebc-8738-2b4361547190-attr-7-type" class="er entityLabel">DateTime</text><rect height="22" width="74.3203125" y="158.5" x="53.6640625" class="er attributeBoxOdd"/><text style="dominant-baseline: middle; font-size: 10.2px;" transform="translate(58.6640625,169.5)" y="0" x="0" id="text-entity-userprofile-2e2772fe-0657-5ebc-8738-2b4361547190-attr-7-name" class="er entityLabel">updated_at</text><rect height="22" width="22.5" y="158.5" x="127.984375" class="er attributeBoxOdd"/><text style="dominant-baseline: middle; font-size: 10.2px;" transform="translate(132.984375,169.5)" y="0" x="0" id="text-entity-userprofile-2e2772fe-0657-5ebc-8738-2b4361547190-attr-7-comment" class="er entityLabel"/><rect height="22" width="53.6640625" y="180.5" x="0" class="er attributeBoxEven"/><text style="dominant-baseline: middle; font-size: 10.2px;" transform="translate(5,191.5)" y="0" x="0" id="text-entity-userprofile-2e2772fe-0657-5ebc-8738-2b4361547190-attr-8-type" class="er entityLabel">Int</text><rect height="22" width="74.3203125" y="180.5" x="53.6640625" class="er attributeBoxEven"/><text style="dominant-baseline: middle; font-size: 10.2px;" transform="translate(58.6640625,191.5)" y="0" x="0" id="text-entity-userprofile-2e2772fe-0657-5ebc-8738-2b4361547190-attr-8-name" class="er entityLabel">user_id</text><rect height="22" width="22.5" y="180.5" x="127.984375" class="er attributeBoxEven"/><text style="dominant-baseline: middle; font-size: 10.2px;" transform="translate(132.984375,191.5)" y="0" x="0" id="text-entity-userprofile-2e2772fe-0657-5ebc-8738-2b4361547190-attr-8-comment" class="er entityLabel"/></g><g transform="translate(220,355.5 )" id="entity-sessions-74cde75f-8a79-5b7e-952e-f1553c3e4880"><rect height="134.5" width="149.84375" y="0" x="0" class="er entityBox"/><text style="dominant-baseline: middle; text-anchor: middle; font-size: 12px;" transform="translate(74.921875,12)" y="0" x="0" id="text-entity-sessions-74cde75f-8a79-5b7e-952e-f1553c3e4880" class="er entityLabel">sessions</text><rect height="22.5" width="53.6640625" y="24" x="0" class="er attributeBoxOdd"/><text style="dominant-baseline: middle; font-size: 10.2px;" transform="translate(5,35.25)" y="0" x="0" id="text-entity-sessions-74cde75f-8a79-5b7e-952e-f1553c3e4880-attr-1-type" class="er entityLabel">Int</text><rect height="22.5" width="73.6796875" y="24" x="53.6640625" class="er attributeBoxOdd"/><text style="dominant-baseline: middle; font-size: 10.2px;" transform="translate(58.6640625,35.25)" y="0" x="0" id="text-entity-sessions-74cde75f-8a79-5b7e-952e-f1553c3e4880-attr-1-name" class="er entityLabel">id</text><rect height="22.5" width="22.5" y="24" x="127.34375" class="er attributeBoxOdd"/><text style="dominant-baseline: middle; font-size: 10.2px;" transform="translate(132.34375,35.25)" y="0" x="0" id="text-entity-sessions-74cde75f-8a79-5b7e-952e-f1553c3e4880-attr-1-comment" class="er entityLabel">🗝️</text><rect height="22" width="53.6640625" y="46.5" x="0" class="er attributeBoxEven"/><text style="dominant-baseline: middle; font-size: 10.2px;" transform="translate(5,57.5)" y="0" x="0" id="text-entity-sessions-74cde75f-8a79-5b7e-952e-f1553c3e4880-attr-2-type" class="er entityLabel">String</text><rect height="22" width="73.6796875" y="46.5" x="53.6640625" class="er attributeBoxEven"/><text style="dominant-baseline: middle; font-size: 10.2px;" transform="translate(58.6640625,57.5)" y="0" x="0" id="text-entity-sessions-74cde75f-8a79-5b7e-952e-f1553c3e4880-attr-2-name" class="er entityLabel">refresh_token</text><rect height="22" width="22.5" y="46.5" x="127.34375" class="er attributeBoxEven"/><text style="dominant-baseline: middle; font-size: 10.2px;" transform="translate(132.34375,57.5)" y="0" x="0" id="text-entity-sessions-74cde75f-8a79-5b7e-952e-f1553c3e4880-attr-2-comment" class="er entityLabel"/><rect height="22" width="53.6640625" y="68.5" x="0" class="er attributeBoxOdd"/><text style="dominant-baseline: middle; font-size: 10.2px;" transform="translate(5,79.5)" y="0" x="0" id="text-entity-sessions-74cde75f-8a79-5b7e-952e-f1553c3e4880-attr-3-type" class="er entityLabel">DateTime</text><rect height="22" width="73.6796875" y="68.5" x="53.6640625" class="er attributeBoxOdd"/><text style="dominant-baseline: middle; font-size: 10.2px;" transform="translate(58.6640625,79.5)" y="0" x="0" id="text-entity-sessions-74cde75f-8a79-5b7e-952e-f1553c3e4880-attr-3-name" class="er entityLabel">expires_at</text><rect height="22" width="22.5" y="68.5" x="127.34375" class="er attributeBoxOdd"/><text style="dominant-baseline: middle; font-size: 10.2px;" transform="translate(132.34375,79.5)" y="0" x="0" id="text-entity-sessions-74cde75f-8a79-5b7e-952e-f1553c3e4880-attr-3-comment" class="er entityLabel"/><rect height="22" width="53.6640625" y="90.5" x="0" class="er attributeBoxEven"/><text style="dominant-baseline: middle; font-size: 10.2px;" transform="translate(5,101.5)" y="0" x="0" id="text-entity-sessions-74cde75f-8a79-5b7e-952e-f1553c3e4880-attr-4-type" class="er entityLabel">DateTime</text><rect height="22" width="73.6796875" y="90.5" x="53.6640625" class="er attributeBoxEven"/><text style="dominant-baseline: middle; font-size: 10.2px;" transform="translate(58.6640625,101.5)" y="0" x="0" id="text-entity-sessions-74cde75f-8a79-5b7e-952e-f1553c3e4880-attr-4-name" class="er entityLabel">created_at</text><rect height="22" width="22.5" y="90.5" x="127.34375" class="er attributeBoxEven"/><text style="dominant-baseline: middle; font-size: 10.2px;" transform="translate(132.34375,101.5)" y="0" x="0" id="text-entity-sessions-74cde75f-8a79-5b7e-952e-f1553c3e4880-attr-4-comment" class="er entityLabel"/><rect height="22" width="53.6640625" y="112.5" x="0" class="er attributeBoxOdd"/><text style="dominant-baseline: middle; font-size: 10.2px;" transform="translate(5,123.5)" y="0" x="0" id="text-entity-sessions-74cde75f-8a79-5b7e-952e-f1553c3e4880-attr-5-type" class="er entityLabel">Int</text><rect height="22" width="73.6796875" y="112.5" x="53.6640625" class="er attributeBoxOdd"/><text style="dominant-baseline: middle; font-size: 10.2px;" transform="translate(58.6640625,123.5)" y="0" x="0" id="text-entity-sessions-74cde75f-8a79-5b7e-952e-f1553c3e4880-attr-5-name" class="er entityLabel">user_id</text><rect height="22" width="22.5" y="112.5" x="127.34375" class="er attributeBoxOdd"/><text style="dominant-baseline: middle; font-size: 10.2px;" transform="translate(132.34375,123.5)" y="0" x="0" id="text-entity-sessions-74cde75f-8a79-5b7e-952e-f1553c3e4880-attr-5-comment" class="er entityLabel"/></g><rect height="14" width="55.21875" y="238.1963653564453" x="111.03938293457031" class="er relationshipLabelBox"/><text style="text-anchor: middle; dominant-baseline: middle; font-size: 12px;" y="245.1963653564453" x="138.6487579345703" id="rel1" class="er relationshipLabel">enum:role</text><rect height="14" width="42.3984375" y="273.17388916015625" x="225.46128845214844" class="er relationshipLabelBox"/><text style="text-anchor: middle; dominant-baseline: middle; font-size: 12px;" y="280.17388916015625" x="246.66050720214844" id="rel2" class="er relationshipLabel">sessions</text><rect height="14" width="35.734375" y="263.2955627441406" x="450.0440368652344" class="er relationshipLabelBox"/><text style="text-anchor: middle; dominant-baseline: middle; font-size: 12px;" y="270.2955627441406" x="467.9112243652344" id="rel3" class="er relationshipLabel">profile</text><rect height="14" width="22.625" y="229.57266235351562" x="527.611572265625" class="er relationshipLabelBox"/><text style="text-anchor: middle; dominant-baseline: middle; font-size: 12px;" y="236.57266235351562" x="538.924072265625" id="rel4" class="er relationshipLabel">user</text><rect height="14" width="22.625" y="284.0355224609375" x="346.8692932128906" class="er relationshipLabelBox"/><text style="text-anchor: middle; dominant-baseline: middle; font-size: 12px;" y="291.0355224609375" x="358.1817932128906" id="rel5" class="er relationshipLabel">user</text></svg>